<?xml version="1.0" standalone="no"?>
<!DOCTYPE svg PUBLIC "-//W3C//DTD SVG 20010904//EN"
 "http://www.w3.org/TR/2001/REC-SVG-20010904/DTD/svg10.dtd">
<svg version="1.0" xmlns="http://www.w3.org/2000/svg"
 width="315.000000pt" height="315.000000pt" viewBox="0 0 315.000000 315.000000"
 preserveAspectRatio="xMidYMid meet">
<metadata>
Created by potrace 1.14, written by Peter Selinger 2001-2017
</metadata>
<g transform="translate(0.000000,315.000000) scale(0.100000,-0.100000)"
fill="#000000" stroke="none">
<path d="M1320 2849 l0 -159 -47 -1 c-27 0 -106 -1 -178 -2 l-130 -2 0 -174 0
-173 63 -20 c159 -49 289 -158 358 -303 100 -208 64 -445 -91 -610 -39 -41
-41 -45 -20 -45 23 0 176 -82 215 -115 19 -17 58 -54 86 -84 l51 -53 49 72
c27 39 59 84 71 98 199 244 338 377 575 549 134 97 126 74 81 223 -30 98 -104
253 -165 343 -202 302 -529 532 -855 601 l-63 14 0 -159z"/>
<path d="M855 2983 c-59 -13 -186 -58 -237 -84 l-58 -29 0 -75 0 -75 38 0 c63
-1 164 -7 238 -15 l71 -7 0 146 c0 157 2 151 -52 139z"/>
<path d="M819 2606 c-2 -2 -25 -6 -50 -9 -54 -6 -166 -35 -191 -48 -15 -8 -18
-24 -18 -104 l0 -94 173 0 174 -1 0 130 1 130 -43 0 c-23 0 -44 -2 -46 -4z"/>
<path d="M470 2068 l0 -73 212 2 c117 0 215 1 219 2 3 1 5 33 6 71 l0 70 -219
0 -218 0 0 -72z"/>
<path d="M2710 2023 c-101 -57 -319 -195 -353 -223 -7 -6 -43 -34 -82 -62
-157 -117 -336 -291 -462 -449 -78 -96 -163 -220 -163 -236 0 -6 -7 -16 -15
-23 -12 -10 -15 -10 -15 2 0 26 -106 143 -176 194 -82 59 -180 106 -290 136
-72 19 -109 22 -407 26 l-327 4 0 -86 c0 -79 2 -86 20 -86 11 0 20 -2 20 -5 0
-15 -154 -147 -162 -139 -8 8 -23 -17 -53 -89 -16 -37 -32 -70 -37 -73 -5 -3
-29 2 -53 12 -25 9 -47 15 -50 12 -18 -17 -84 -153 -78 -159 5 -4 73 -33 153
-64 80 -30 154 -59 165 -64 11 -5 81 -33 155 -61 201 -77 586 -228 951 -374
91 -36 169 -66 172 -66 3 0 23 16 44 36 192 179 533 389 822 504 179 71 502
169 616 187 17 3 31 6 33 8 3 3 -65 166 -73 173 -1 2 -38 -6 -81 -18 -44 -11
-86 -22 -94 -24 -81 -20 -374 -126 -522 -190 -21 -9 -38 -14 -38 -12 0 10 189
121 299 177 63 32 162 77 220 100 59 23 110 45 115 50 7 6 -38 98 -66 136 -15
19 -350 -140 -558 -265 -70 -42 -206 -132 -240 -159 -175 -138 -281 -236 -383
-353 -36 -41 -45 -48 -38 -28 26 70 60 118 144 203 137 137 321 272 542 400
99 57 388 205 401 205 6 0 75 30 83 37 6 4 4 193 -2 199 -16 17 -433 -222
-612 -350 -197 -141 -423 -347 -510 -463 -21 -29 -40 -51 -42 -49 -10 10 45
124 99 206 69 105 237 281 365 384 166 132 368 258 588 367 l150 74 0 78 c0
52 -4 77 -12 77 -17 0 -159 -65 -302 -137 -68 -35 -126 -61 -128 -59 -6 6 182
128 292 190 l100 56 1 95 c1 53 -1 97 -5 99 -3 2 -58 -26 -121 -61z"/>
<path d="M469 1858 c-2 -24 -2 -56 1 -73 l5 -30 115 0 c63 0 120 4 125 7 6 4
10 35 10 70 l-1 63 -126 3 -126 3 -3 -43z"/>
</g>
</svg>
